<svg xmlns="http://www.w3.org/2000/svg" aria-hidden="true" focusable="false" data-prefix="fas" data-icon="file-export" role="img" width="576" height="512"><rect id="backgroundrect" width="100%" height="100%" x="0" y="0" fill="none" stroke="none"/><g class="currentLayer" style=""><title>Layer 1</title><path fill="#ffffff" d="M384 121.9c0-6.3-2.5-12.4-7-16.9L279.1 7c-4.5-4.5-10.6-7-17-7H256v128h128zM571 308l-95.7-96.4c-10.1-10.1-27.4-3-27.4 11.3V288h-64v64h64v65.2c0 14.3 17.3 21.4 27.4 11.3L571 332c6.6-6.6 6.6-17.4 0-24zm-379 28v-32c0-8.8 7.2-16 16-16h176V160H248c-13.2 0-24-10.8-24-24V0H24C10.7 0 0 10.7 0 24v464c0 13.3 10.7 24 24 24h336c13.3 0 24-10.7 24-24V352H208c-8.8 0-16-7.2-16-16z" id="svg_1" class="selected" fill-opacity="1" stroke="#ffffff" stroke-opacity="1"/></g></svg>